<?xml version="1.0" standalone="no"?>
<!DOCTYPE svg PUBLIC "-//W3C//DTD SVG 20010904//EN"
 "http://www.w3.org/TR/2001/REC-SVG-20010904/DTD/svg10.dtd">
<svg version="1.0" xmlns="http://www.w3.org/2000/svg"
 width="700.000000pt" height="700.000000pt" viewBox="0 0 700.000000 700.000000"
 preserveAspectRatio="xMidYMid meet">
<metadata>
Created by potrace 1.11, written by Peter Selinger 2001-2013
</metadata>
<g transform="translate(0.000000,700.000000) scale(0.100000,-0.100000)"
fill="#000000" stroke="none">
<path d="M2690 6605 c-69 -41 -126 -78 -127 -82 -2 -5 14 -37 35 -73 85 -145
216 -365 319 -540 287 -482 337 -567 353 -595 10 -16 25 -43 35 -60 l17 -30
-107 -180 c-58 -99 -110 -187 -116 -195 -5 -8 -76 -127 -157 -265 -81 -137
-294 -496 -472 -798 -179 -301 -333 -562 -344 -580 -10 -17 -82 -140 -161
-272 -210 -355 -1041 -1759 -1089 -1840 -22 -38 -43 -72 -46 -75 -3 -3 -11
-16 -18 -30 -7 -14 -59 -101 -115 -195 l-102 -170 -295 0 -295 0 -3 -153 -3
-152 3501 0 3501 0 -3 153 -3 152 -292 0 c-179 0 -296 4 -302 10 -8 8 -630
1052 -695 1167 -12 20 -39 67 -62 105 -23 37 -261 439 -529 893 -268 454 -498
841 -510 860 -12 19 -38 62 -57 95 -69 117 -302 512 -375 634 -41 68 -82 138
-92 155 -16 30 -265 450 -357 603 -24 40 -44 75 -44 78 0 6 113 199 290 495
205 343 459 776 465 791 4 11 -9 25 -45 47 -28 18 -53 32 -55 32 -1 0 -36 20
-76 45 -54 33 -76 41 -82 32 -14 -21 -471 -793 -574 -969 -54 -92 -100 -168
-103 -168 -4 1 -256 423 -380 636 -34 59 -288 486 -298 501 -5 9 -43 -9 -132
-62z m955 -1921 c77 -130 151 -255 165 -280 14 -24 171 -290 350 -591 179
-301 326 -553 328 -560 2 -7 8 -13 13 -13 5 0 9 -4 9 -9 0 -4 113 -199 251
-432 405 -683 534 -901 671 -1134 72 -121 141 -237 154 -257 13 -21 24 -40 24
-42 0 -3 27 -48 60 -101 33 -53 60 -99 60 -102 0 -3 14 -25 30 -50 17 -24 30
-46 30 -48 0 -2 54 -95 121 -207 67 -112 125 -210 129 -218 7 -13 -78 -15
-745 -15 l-754 0 7 95 c8 131 8 437 -1 545 -4 50 -9 117 -12 151 -7 93 -60
348 -94 451 -69 212 -167 381 -290 503 -174 173 -362 249 -626 256 -447 11
-764 -220 -941 -686 -53 -137 -104 -369 -120 -535 -17 -188 -20 -258 -17 -459
2 -121 5 -243 6 -271 l2 -50 -745 -1 c-410 0 -748 1 -753 4 -4 2 1 15 11 30
17 24 67 109 317 532 48 81 830 1401 1309 2210 35 58 112 188 173 290 60 102
163 275 228 385 65 110 157 265 204 345 48 80 134 225 191 322 58 98 107 178
110 178 3 0 68 -106 145 -236z m18 -2378 c230 -54 385 -222 487 -526 16 -47
32 -100 35 -119 3 -19 7 -37 9 -40 2 -3 7 -24 10 -46 4 -22 11 -65 16 -95 9
-53 16 -126 25 -240 11 -148 2 -548 -14 -610 0 -3 -330 -5 -733 -5 -666 0
-731 1 -733 16 -14 92 -21 514 -11 579 2 14 7 62 11 108 3 46 11 109 16 140 5
31 12 73 15 92 40 253 160 506 294 621 150 128 362 174 573 125z"/>
</g>
</svg>
